# xmcd CD database file
#
# Track frame offsets:
#	150
#	14632
#	33959
#	53920
#	70764
#	76814
#	98191
#	117202
#	152734
#	162924
#	185361
#	203132
#	223105
#	238892
#
# Disc length: 3674 seconds
#
# Revision: 0
# Processed by: cddbd v1.5.2PL0 Copyright (c) Steve Scherf et al.
# Submitted via: CDex 1.82
#
DISCID=bb0e580e
DTITLE=Bruno Tocanne Henri Roger - Remedios la belle
DYEAR=2011
DGENRE=Jazz
TTITLE0=Remedios la belle
TTITLE1=Melquiades
TTITLE2=Rebecca
TTITLE3=Aureliano Segundo
TTITLE4=La bananeraie
TTITLE5=Macondo
TTITLE6=Ursula
TTITLE7=Les 17 Aureliano
TTITLE8=Aracataca
TTITLE9=Pilar Ternera
TTITLE10=Mr Herbert and Mr Brown
TTITLE11=Amaranta
TTITLE12=Mauricio Babiblonia
TTITLE13=Jose Arcadio Segundo
EXTD=YEAR: 2011
EXTT0=
EXTT1=
EXTT2=
EXTT3=
EXTT4=
EXTT5=
EXTT6=
EXTT7=
EXTT8=
EXTT9=
EXTT10=
EXTT11=
EXTT12=
EXTT13=
PLAYORDER=
